# xmcd
#
# Track frame offsets: 
#        150
#        17162
#        36305
#        49605
#        63727
#        80355
#        95170
#        114342
#        135235
#        152655
#        177840
#        195450
#        218617
#        233975
#        247302
#        266237
#        296105
#        311615
#
# Disc length: 4373 seconds
#
# Revision: 4
# Processed by: cddbd v1.5.2PL0 Copyright (c) Steve Scherf et al.
# Submitted via: ExactAudioCopy v1.0b1
#
DISCID=06111312
DTITLE=Lou Reed - The Very Best Of
DYEAR=1999
DGENRE=Rock
TTITLE0=Perfect Day
TTITLE1=Walk On The Wild Side
TTITLE2=Vicious
TTITLE3=Rock And Roll Heart
TTITLE4=The Gun
TTITLE5=I Love You, Suzanne
TTITLE6=Caroline Says II
TTITLE7=Men Of Good Fortune
TTITLE8=My Friend George
TTITLE9=Lisa Says
TTITLE10=I Want To Boogie With You
TTITLE11=Ocean
TTITLE12=The Last Shot
TTITLE13=I Wanna Be Black
TTITLE14=Sally Can't Dance
TTITLE15=Coney Island Baby
TTITLE16=Berlin
TTITLE17=Satellite Of Love
EXTD=YEAR: 1999
EXTT0=
EXTT1=
EXTT2=
EXTT3=
EXTT4=
EXTT5=
EXTT6=
EXTT7=
EXTT8=
EXTT9=
EXTT10=
EXTT11=
EXTT12=
EXTT13=
EXTT14=
EXTT15=
EXTT16=
EXTT17=
PLAYORDER=
